<?xml version="1.0" encoding="UTF-8"?>
<svg xmlns="http://www.w3.org/2000/svg" xmlns:xlink="http://www.w3.org/1999/xlink" version="1.1" id="Capa_1" x="0px" y="0px" viewBox="0 0 512 512" style="enable-background:new 0 0 512 512;" xml:space="preserve" width="512" height="512">
<g>
	
		<rect x="196" y="166" transform="matrix(0.7071 -0.7071 0.7071 0.7071 -106.0387 256)" style="fill:none;stroke:#000000;stroke-width:15;stroke-linecap:round;stroke-linejoin:round;stroke-miterlimit:10;" width="120" height="180"/>
	
		<line style="fill:none;stroke:#000000;stroke-width:15;stroke-linecap:round;stroke-linejoin:round;stroke-miterlimit:10;" x1="171.147" y1="256" x2="256" y2="171.147"/>
	
		<circle style="fill:none;stroke:#000000;stroke-width:15;stroke-linecap:round;stroke-linejoin:round;stroke-miterlimit:10;" cx="256" cy="256" r="30"/>
	
		<circle style="fill:none;stroke:#000000;stroke-width:15;stroke-linecap:round;stroke-linejoin:round;stroke-miterlimit:10;" cx="408.5" cy="408.5" r="15"/>
	
		<circle style="fill:none;stroke:#000000;stroke-width:15;stroke-linecap:round;stroke-linejoin:round;stroke-miterlimit:10;" cx="103.5" cy="103.5" r="15"/>
	
		<line style="fill:none;stroke:#000000;stroke-width:15;stroke-linecap:round;stroke-linejoin:round;stroke-miterlimit:10;" x1="348.43" y1="78.717" x2="433.283" y2="163.57"/>
	
		<rect x="290.141" y="61.143" transform="matrix(0.7071 -0.7071 0.7071 0.7071 28.8179 311.8594)" style="fill:none;stroke:#000000;stroke-width:15;stroke-linecap:round;stroke-linejoin:round;stroke-miterlimit:10;" width="201.432" height="120"/>
	
		<line style="fill:none;stroke:#000000;stroke-width:15;stroke-linecap:round;stroke-linejoin:round;stroke-miterlimit:10;" x1="462.074" y1="49.926" x2="319.64" y2="192.36"/>
	
		<line style="fill:none;stroke:#000000;stroke-width:15;stroke-linecap:round;stroke-linejoin:round;stroke-miterlimit:10;" x1="309.033" y1="181.754" x2="287.82" y2="202.967"/>
	
		<line style="fill:none;stroke:#000000;stroke-width:15;stroke-linecap:round;stroke-linejoin:round;stroke-miterlimit:10;" x1="330.246" y1="202.967" x2="309.033" y2="224.18"/>
	
		<line style="fill:none;stroke:#000000;stroke-width:15;stroke-linecap:round;stroke-linejoin:round;stroke-miterlimit:10;" x1="78.717" y1="348.43" x2="163.57" y2="433.283"/>
	
		<rect x="20.427" y="330.857" transform="matrix(0.7071 -0.7071 0.7071 0.7071 -240.8953 200.1406)" style="fill:none;stroke:#000000;stroke-width:15;stroke-linecap:round;stroke-linejoin:round;stroke-miterlimit:10;" width="201.432" height="120"/>
	
		<line style="fill:none;stroke:#000000;stroke-width:15;stroke-linecap:round;stroke-linejoin:round;stroke-miterlimit:10;" x1="49.926" y1="462.074" x2="192.36" y2="319.64"/>
	
		<line style="fill:none;stroke:#000000;stroke-width:15;stroke-linecap:round;stroke-linejoin:round;stroke-miterlimit:10;" x1="181.754" y1="309.033" x2="202.967" y2="287.82"/>
	
		<line style="fill:none;stroke:#000000;stroke-width:15;stroke-linecap:round;stroke-linejoin:round;stroke-miterlimit:10;" x1="202.967" y1="330.246" x2="224.18" y2="309.033"/>
	
		<line style="fill:none;stroke:#000000;stroke-width:15;stroke-linecap:round;stroke-linejoin:round;stroke-miterlimit:10;" x1="277.213" y1="319.64" x2="277.213" y2="319.64"/>
	
		<line style="fill:none;stroke:#000000;stroke-width:15;stroke-linecap:round;stroke-linejoin:round;stroke-miterlimit:10;" x1="298.426" y1="298.426" x2="298.426" y2="298.426"/>
	
		<line style="fill:none;stroke:#000000;stroke-width:15;stroke-linecap:round;stroke-linejoin:round;stroke-miterlimit:10;" x1="319.64" y1="277.213" x2="319.64" y2="277.213"/>
	<path style="fill:none;stroke:#000000;stroke-width:15;stroke-linecap:round;stroke-linejoin:round;stroke-miterlimit:10;" d="&#10;&#9;&#9;M352.058,486.155C367.901,497.69,387.403,504.5,408.5,504.5c53.019,0,96-42.981,96-96s-42.981-96-96-96s-96,42.981-96,96&#10;&#9;&#9;c0,21.097,6.811,40.6,18.345,56.442"/>
	<path style="fill:none;stroke:#000000;stroke-width:15;stroke-linecap:round;stroke-linejoin:round;stroke-miterlimit:10;" d="&#10;&#9;&#9;M47.058,181.155C62.901,192.69,82.404,199.5,103.5,199.5c53.019,0,96-42.981,96-96s-42.981-96-96-96s-96,42.981-96,96&#10;&#9;&#9;c0,21.097,6.811,40.6,18.345,56.442"/>
</g>















</svg>
