<svg clip-rule="evenodd" fill-rule="evenodd" height="512" image-rendering="optimizeQuality" shape-rendering="geometricPrecision" text-rendering="geometricPrecision" viewBox="0 0 43.3492 43.3492" width="512" xmlns="http://www.w3.org/2000/svg"><g id="Layer_x0020_1"><path d="m20.0085 25.1309h.0009zm6.159-5.1619c-.294 0-.5704.1129-.7773.3198l-5.1114 5.1125h-.0001c-.2069.2059-.3209.4822-.3209.7773.0001.2941.1139.5704.3209.7773l7.9397 7.9395c.4287.4288 1.1257.4288 1.5545.0001l5.1125-5.1125c.2061-.206.3197-.4822.3197-.7773.0002-.2941-.1138-.5704-.3198-.7774l-7.9404-7.9395c-.2059-.207-.4823-.3198-.7774-.3198zm2.828 16.0107c-.4761 0-.9535-.1812-1.317-.5446l-7.9393-7.9405c-.3507-.3505-.5438-.8179-.5438-1.316.0001-.4991.1931-.9664.5436-1.317h.0002l5.1123-5.1125c.3507-.3505.8179-.5436 1.3159-.5436.4992 0 .9665.1931 1.317.5436l7.9406 7.9405c.3507.3506.5436.818.5436 1.3161 0 .499-.1931.9664-.5437 1.3169l-5.1122 5.1125c-.3625.3634-.8399.5446-1.3172.5446z"/><path d="m32.9009 37.465c-.088 0-.1763-.0297-.2475-.091-.0187-.0159-.0367-.0327-.0545-.0496l-2.2408-2.2418c-.0684-.0684-.1248-.1456-.1684-.2317-.0949-.1882-.0208-.4169.1674-.5129.1882-.0951.4178-.0208.5129.1673.007.0138.0158.0267.0277.0376l2.0024 2.0022 3.6349-3.635-2.0021-2.0023c-.0109-.0119-.0239-.0207-.0377-.0277-.1882-.095-.2625-.3247-.1674-.5129.0953-.1882.3248-.2624.5129-.1673.0864.0435.1634.1.2318.1683l2.2418 2.2418c.0179.0179.0337.0357.0495.0535.1288.1515.1198.3763-.0208.5169l-4.1727 4.1727c-.0742.0743-.1714.1119-.2694.1119z"/><path d="m9.746 21.1116c2.5072 1.7963 6.5758 1.018 9.4741-1.8813 2.8994-2.8984 3.6777-6.9672 1.8814-9.4734zm3.1845 1.7161c-1.5053 0-2.9114-.4525-4.0066-1.3922-.08-.0694-.1277-.1684-.1327-.2743-.0039-.107.0367-.2099.1119-.2842l11.963-11.9638c.075-.0752.178-.1158.284-.1108.107.0039.2059.0515.2753.1327 2.3745 2.7666 1.6427 7.5266-1.6656 10.8348-2.0002 2.0003-4.5293 3.0578-6.8293 3.0578z"/><path d="m23.4505 22.0702c-.0971 0-.1952-.0376-.2695-.1119l-3.1121-3.1122c-.1486-.1486-.1487-.3892-.0002-.5377.1488-.1485.3892-.1485.5377 0l3.1133 3.1122c.1477.1486.1475.3892 0 .5377-.0742.0743-.1723.1119-.2692.1119zm-1.7715 1.7705c-.0971 0-.1943-.0366-.2685-.1109l-3.1122-3.1123c-.1486-.1485-.1486-.3901 0-.5376.1486-.1486.3891-.1486.5376 0l3.1123 3.1122c.1486.1485.1485.3892 0 .5377-.0742.0743-.1713.1109-.2692.1109z"/><path d="m15.1544 15.5467c-.098 0-.1951-.0376-.2704-.1119l-5.6718-5.672c-.1486-.1485-.1487-.3911-.0001-.5396.1496-.1495.3911-.1495.5406 0l5.672 5.6709c.1495.1495.1495.3912-.0001.5407-.0741.0743-.1722.1119-.2702.1119z"/><path d="m7.3257 7.3359h.0012zm1.0784-.0654c-.293 0-.5863.1109-.8091.3347l.0001-.0001c-.2168.216-.3357.5031-.3357.8091 0 .3059.1188.5931.3356.81.216.2158.5031.3357.809.3357.3062 0 .5932-.1198.81-.3357.2161-.2169.3347-.504.3347-.81.0001-.306-.1188-.5931-.3347-.809-.2237-.2238-.5169-.3347-.8099-.3347zm0 3.0498c-.5089 0-.9873-.199-1.3467-.5584-.3604-.3605-.5585-.8387-.5585-1.3477s.198-.9872.5585-1.3467c.7427-.7427 1.9517-.7436 2.6943 0 .3595.3594.5575.8377.5575 1.3467s-.198.9873-.5575 1.3477c-.3604.3594-.8387.5584-1.3476.5584z"/><path d="m11.2579 19.4531c-.186 0-.3486-.1367-.3763-.3258l-1.3109-9.1159c-.017-.1189.0226-.2386.1077-.3228.0843-.0852.204-.1248.3228-.1079l9.113 1.311c.2081.0297.3525.2218.3218.4298-.0297.2079-.2228.3525-.4297.3228l-8.6108-1.2388 1.2387 8.6128c.0296.208-.114.4011-.3219.4308-.0187.003-.0366.004-.0544.004z"/><path d="m34.8032 37.7215c-.51 0-.9616-.1762-1.2953-.5099-.1623-.1625-.2881-.3555-.3753-.5734-.077-.196.0178-.4178.2139-.4961.1961-.0772.4179.0189.4951.2139.0486.1218.1179.2277.206.3159.2309.2307.5773.3268.9783.2703.4408-.0624.8833-.2961 1.2467-.6594.708-.7081.8862-1.727.3891-2.2251-.0879-.0881-.194-.1574-.3158-.2059-.195-.0773-.2911-.2991-.2139-.4951.0784-.1961.3-.2921.4961-.2139.2179.0871.4109.2129.5733.3753.8032.804.6288 2.2864-.3891 3.3043-.4792.4793-1.0764.7902-1.6794.8753-.1118.0159-.2218.0238-.3297.0238z"/><path d="m30.4671 23.6506c-.0972 0-.1952-.0367-.2695-.1109-.1485-.1485-.1485-.3891 0-.5377l2.8034-2.8023c.1486-.1486.3891-.1485.5376 0 .1486.1485.1485.3892 0 .5377l-2.8033 2.8022c-.0741.0743-.1713.111-.2682.111zm1.4357 1.4368c-.0969 0-.1941-.0376-.2684-.1119-.1485-.1476-.1485-.3892 0-.5367l2.8025-2.8033c.1484-.1485.389-.1485.5375 0 .1487.1485.1486.3892 0 .5377l-2.8022 2.8023c-.0742.0742-.1714.1119-.2694.1119z"/><path d="m32.7011 19.362 3.1111 3.1112 6.6196-6.6196-3.1112-3.1112zm3.1111 4.0292c-.098 0-.1951-.0377-.2694-.1119l-3.6478-3.648c-.1486-.1485-.1487-.3891-.0001-.5376l7.1573-7.1574c.1486-.1484.3891-.1484.5376.0001l3.6481 3.6479c.1486.1485.1484.3892-.0001.5377l-7.1573 7.1572c-.0742.0743-.1713.112-.2683.112z"/><path d="m33.9873 21.5662c-.0971 0-.1942-.0366-.2685-.1109-.1483-.1486-.1485-.3892 0-.5377l7.1574-7.1573c.1486-.1485.389-.1485.5376 0 .1486.1486.1485.3892 0 .5377l-7.1571 7.1573c-.0745.0742-.1715.1109-.2694.1109z"/><path d="m39.3908 19.8125c-.098 0-.1951-.0376-.2694-.1119l-3.6478-3.6479c-.1495-.1486-.1496-.3892-.0011-.5387.1497-.1485.3902-.1485.5387 0l3.6481 3.649c.1484.1484.1483.3891-.0002.5376-.0742.0743-.1713.1119-.2683.1119z"/><path d="m41.1872 18.0163c-.0982 0-.1952-.0376-.2695-.1119l-3.6488-3.648c-.1486-.1485-.1487-.3891-.0002-.5386.1497-.1486.3902-.1485.5387 0l3.6481 3.6489c.1486.1485.1484.3892-.0001.5377-.0741.0742-.1713.1119-.2682.1119z"/><path d="m37.5946 21.6088c-.098 0-.1951-.0376-.2694-.1119l-3.6489-3.648c-.1484-.1485-.1486-.3891-.0001-.5386.1487-.1486.3902-.1486.5387 0l3.648 3.6488c.1486.1486.1485.3893 0 .5378-.0742.0742-.1713.1119-.2683.1119z"/><path d="m20.4639 33.6537c-.0969 0-.1941-.0366-.2684-.1109-.1484-.1485-.1486-.3891 0-.5377l2.7965-2.7973c.1486-.1486.389-.1485.5375 0 .1487.1485.1486.3901 0 .5377l-2.7962 2.7973c-.0742.0743-.1724.1109-.2694.1109zm1.436 1.4368c-.0972 0-.1943-.0376-.2686-.1119-.1485-.1486-.1485-.3891 0-.5377l2.7964-2.7963c.1486-.1486.3891-.1485.5377 0 .1485.1485.1485.3891 0 .5377l-2.7964 2.7963c-.0742.0742-.1713.1119-.2691.1119z"/><path d="m12.7531 39.3098 3.1114 3.1102 6.6037-6.6037-3.1102-3.1113zm3.1114 4.0292c-.1012 0-.1982-.0406-.2695-.1119l-3.6478-3.649c-.0713-.0713-.1121-.1673-.1121-.2683.0001-.101.0406-.198.1119-.2693l7.1416-7.1414c.1426-.1427.3949-.1426.5385 0l3.6481 3.6479c.1486.1485.1484.3892-.0001.5377l-7.1424 7.1424c-.0713.0712-.1674.1119-.2682.1119z"/><path d="m14.0404 41.515c-.098 0-.1951-.0376-.2704-.1119-.1484-.1485-.1485-.3901 0-.5386l7.1426-7.1425c.1484-.1485.39-.1485.5385 0 .1495.1496.1495.3902 0 .5397l-7.1413 7.1414c-.0742.0743-.1724.1119-.2694.1119z"/><path d="m19.435 39.7673c-.0969 0-.1941-.0367-.2683-.1109l-3.6489-3.6489c-.1486-.1486-.1486-.3892-.0001-.5377.1487-.1486.3892-.1486.5377 0l3.649 3.6489c.1486.1485.1485.3892-.0001.5377-.0741.0742-.1722.1109-.2693.1109z"/><path d="m17.6429 41.5595c-.0972 0-.1943-.0365-.2685-.1108l-3.6488-3.649c-.1486-.1485-.1487-.3891-.0001-.5376.1485-.1486.3891-.1486.5376 0l3.6491 3.6489c.1486.1485.1484.3891-.0001.5377-.0741.0742-.1723.1109-.2692.1108z"/><path d="m21.2274 37.975c-.0971 0-.1942-.0376-.2684-.1119l-3.6488-3.6479c-.1486-.1486-.1487-.3892-.0002-.5377.1486-.1485.3892-.1485.5377 0l3.6491 3.6479c.1484.1486.1484.3902-.0002.5377-.0742.0742-.1713.1119-.2692.1119z"/><path d="m21.8789 29.475c-.098 0-.1951-.0366-.2694-.1109-.1483-.1485-.1485-.3891 0-.5377.3189-.3198 7.2019-7.2107 7.2019-7.2107l.5377.5367s-6.8821 6.8909-7.2019 7.2107c-.0742.0753-.1713.1119-.2683.1119z"/><path d="m26.0655 33.6616c-.0989 0-.1971-.0376-.2713-.1128-.1476-.1496-.1456-.3902.0039-.5377.3011-.2971 7.1622-7.1098 7.2315-7.1791.1496-.1475.3902-.1465.5387.002.1476.1495.1466.3902-.002.5377-.0692.0693-6.9324 6.883-7.2345 7.181-.074.0723-.1703.109-.2663.1089z"/><path d="m2.0301 7.1952c-.0107 0-.0208-.001-.0317-.0019-.209-.0169-.3644-.2001-.3476-.41.109-1.3189.6852-2.5626 1.622-3.4994.9378-.9377 2.1804-1.514 3.5004-1.623.209-.0168.3931.1387.4099.3476.0179.2099-.1386.3931-.3476.411-1.1395.093-2.2141.5911-3.0251 1.4021-.8098.81-1.308 1.8844-1.4021 3.0241-.0157.199-.1822.3496-.3782.3495z"/><path d="m3.8877 7.2566c-.0158 0-.0307-.001-.0466-.0029-.2087-.0248-.3574-.2149-.3317-.4228.1041-.8497.4793-1.6191 1.0853-2.2251.6071-.607 1.3764-.9822 2.225-1.0862.208-.0248.3981.1228.4238.3317.0259.2079-.1228.3981-.3307.4238-.6792.0832-1.2952.3832-1.7804.8684-.484.4852-.7853 1.1002-.8684 1.7794-.0227.1921-.1872.3337-.3763.3337z"/><path d="m.3805 7.0546c-.0029 0-.0051.0001-.0081.0001-.2098-.004-.3773-.1783-.3723-.3882.0348-1.7953.7318-3.4618 1.9636-4.6926 1.2309-1.2319 2.8974-1.929 4.6926-1.9636h.0079c.2062 0 .3763.1653.3803.3723.0041.2099-.1634.3842-.3733.3881-1.597.0307-3.0786.6496-4.1698 1.7408-1.092 1.0913-1.7101 2.5726-1.7418 4.1698-.0039.2079-.1733.3734-.3791.3733z"/></g></svg>