<?xml version="1.0" encoding="UTF-8"?>
<svg xmlns="http://www.w3.org/2000/svg" xmlns:xlink="http://www.w3.org/1999/xlink" version="1.1" id="Capa_1" x="0px" y="0px" viewBox="0 0 512.063 512.063" style="enable-background:new 0 0 512.063 512.063;" xml:space="preserve" width="512" height="512">
<g>
	<path fill="rgb(255,255,255)" style="fill:none;stroke:#000000;stroke-width:15;stroke-miterlimit:10;" d="M79.475,316.917&#10;&#9;&#9;c4.915-9.555,15.444-18.09,15.444-18.09"/>
	<path fill="rgb(255,255,255)" style="fill:none;stroke:#000000;stroke-width:15;stroke-miterlimit:10;" d="M179.305,437.778&#10;&#9;&#9;c-11.924,7.21-30.354,7.914-30.354,7.914"/>
	<path fill="rgb(255,255,255)" style="fill:none;stroke:#000000;stroke-width:15;stroke-miterlimit:10;" d="M238.674,383.057&#10;&#9;&#9;c3.047-10.68,4.006-21.83,2.878-32.806l27.321-15.24l-14.849-37.948l-31.706,7.064c-1.784-2.168-3.686-4.271-5.712-6.298&#10;&#9;&#9;c-25.583-25.583-63.166-31.841-94.627-18.787l-25.404-16.392l-31.731,31.731l14.633,22.534&#10;&#9;&#9;c-18.433,33.022-13.617,75.531,14.447,103.596c15.333,15.333,34.977,23.725,55.029,25.179l21.878,27.021l40.493-19.341&#10;&#9;&#9;l-6.591-22.921c4.174-2.904,8.151-6.217,11.873-9.939c6.968-6.968,12.503-14.827,16.604-23.211"/>
	<path fill="rgb(255,255,255)" style="fill:none;stroke:#000000;stroke-width:15;stroke-miterlimit:10;" d="M241.551,350.251&#10;&#9;&#9;c-1.627-11.189-5.206-20.425-5.206-20.425"/>
	
		<line style="fill:none;stroke:#000000;stroke-width:15;stroke-miterlimit:10;" x1="257.741" y1="208.741" x2="268.872" y2="197.609"/>
	
		<line style="fill:none;stroke:#000000;stroke-width:15;stroke-miterlimit:10;" x1="158.609" y1="307.872" x2="246.61" y2="219.872"/>
	
		<line style="fill:none;stroke:#000000;stroke-width:15;stroke-miterlimit:10;" x1="266.155" y1="131.117" x2="354.156" y2="43.117"/>
	
		<line style="fill:none;stroke:#000000;stroke-width:15;stroke-miterlimit:10;" x1="380.613" y1="135.026" x2="506.475" y2="5.221"/>
	<line style="fill:none;stroke:#000000;stroke-width:15;stroke-miterlimit:10;" x1="94.546" y1="95.748" x2="201.609" y2="6.038"/>
	
		<line style="fill:none;stroke:#000000;stroke-width:15;stroke-miterlimit:10;" x1="444.665" y1="229.452" x2="506.605" y2="167.513"/>
	
		<line style="fill:none;stroke:#000000;stroke-width:15;stroke-miterlimit:10;" x1="303.989" y1="434.708" x2="367.126" y2="372.739"/>
	
		<line style="fill:none;stroke:#000000;stroke-width:15;stroke-miterlimit:10;" x1="253.168" y1="297.641" x2="308.757" y2="242.051"/>
	
		<line style="fill:none;stroke:#000000;stroke-width:15;stroke-miterlimit:10;" x1="431.264" y1="146.334" x2="472.905" y2="104.693"/>
	
		<line style="fill:none;stroke:#000000;stroke-width:15;stroke-miterlimit:10;" x1="383.593" y1="170.442" x2="398.718" y2="170.442"/>
	<line style="fill:none;stroke:#000000;stroke-width:15;stroke-miterlimit:10;" x1="8.78" y1="271.442" x2="23.78" y2="271.442"/>
	
		<line style="fill:none;stroke:#000000;stroke-width:15;stroke-miterlimit:10;" x1="368.655" y1="437.778" x2="383.655" y2="437.778"/>
	
		<line style="fill:none;stroke:#000000;stroke-width:15;stroke-miterlimit:10;" x1="287.371" y1="25.442" x2="302.246" y2="25.442"/>
	<circle style="fill:none;stroke:#000000;stroke-width:15;stroke-miterlimit:10;" cx="144.208" cy="321.5" r="19.625"/>
	<circle style="fill:none;stroke:#000000;stroke-width:15;stroke-miterlimit:10;" cx="129.326" cy="386.312" r="19.625"/>
	<line style="fill:none;stroke:#000000;stroke-width:15;stroke-miterlimit:10;" x1="180.552" y1="376.078" x2="195.6" y2="376"/>
	<circle style="fill:none;stroke:#000000;stroke-width:15;stroke-miterlimit:10;" cx="421.155" cy="220.54" r="24.759"/>
	<circle style="fill:none;stroke:#000000;stroke-width:15;stroke-miterlimit:10;" cx="72.489" cy="106.994" r="24.759"/>
	<polygon style="fill:none;stroke:#000000;stroke-width:15;stroke-miterlimit:10;" points="135.109,166.38 135.109,106.38 &#10;&#9;&#9;192.155,59.442 255.109,61.442 266.155,131.117 238.405,160.192 180.234,181.442 &#9;"/>
	<polyline style="fill:none;stroke:#000000;stroke-width:15;stroke-miterlimit:10;" points="178.205,152.546 234.155,125.942 &#10;&#9;&#9;226.655,61.442 &#9;"/>
	
		<line style="fill:none;stroke:#000000;stroke-width:15;stroke-miterlimit:10;" x1="234.155" y1="125.942" x2="266.155" y2="130.942"/>
	<polyline style="fill:none;stroke:#000000;stroke-width:15;stroke-miterlimit:10;" points="346.966,170.562 327.905,190.692 &#10;&#9;&#9;350.613,276.026 432.613,282.455 485.613,237.235 470.613,156.026 380.613,135.026 357.423,159.518 &#9;"/>
	<polygon style="fill:none;stroke:#000000;stroke-width:15;stroke-miterlimit:10;" points="7.655,181.442 7.655,229.452 &#10;&#9;&#9;46.28,235.109 72.489,198.483 46.28,162.442 &#9;"/>
	<polygon style="fill:none;stroke:#000000;stroke-width:15;stroke-miterlimit:10;" points="303.989,434.708 249.656,434.708 &#10;&#9;&#9;243.551,482.708 286.282,503.395 322.322,478.187 &#9;"/>
</g>















</svg>
